<svg version="1.1" xmlns="http://www.w3.org/2000/svg" xmlns:xlink="http://www.w3.org/1999/xlink" height="50" viewBox="0, 0, 400,108.89526542324246"><g><path d="M131.917 26.064 C 131.550 26.190,130.987 26.409,130.667 26.549 C 129.717 26.965,127.833 28.926,127.833 29.499 C 127.833 29.646,127.762 29.838,127.675 29.925 C 127.087 30.514,126.837 33.423,127.239 35.000 C 127.691 36.774,128.950 39.000,129.501 39.000 C 129.583 39.000,129.972 39.215,130.367 39.477 C 132.462 40.873,136.504 40.403,138.384 38.545 C 141.898 35.072,140.843 28.168,136.522 26.360 C 135.346 25.868,132.934 25.713,131.917 26.064 M100.792 26.097 C 100.723 26.166,100.667 29.326,100.667 33.120 L 100.667 40.018 104.292 39.965 C 108.095 39.908,107.930 39.936,109.521 39.072 C 111.604 37.941,111.820 33.381,109.821 32.746 C 109.413 32.617,109.416 32.461,109.832 32.084 C 110.845 31.168,110.707 28.422,109.593 27.343 C 108.550 26.332,107.660 26.122,104.083 26.042 C 102.342 26.003,100.860 26.028,100.792 26.097 M114.434 26.264 C 114.379 26.409,114.333 29.559,114.333 33.264 L 114.333 40.000 115.917 40.000 L 117.500 40.000 117.500 37.500 L 117.500 35.000 118.247 35.000 C 119.056 35.000,118.962 34.899,120.258 37.148 C 120.437 37.458,120.822 38.077,121.114 38.523 C 121.406 38.969,121.692 39.484,121.750 39.667 C 121.852 39.988,125.833 40.221,125.833 39.906 C 125.833 39.769,125.469 39.098,125.342 39.000 C 125.282 38.954,124.983 38.504,124.678 38.000 C 124.373 37.496,124.069 37.046,124.004 37.000 C 123.938 36.954,123.779 36.723,123.651 36.485 C 123.522 36.248,123.129 35.623,122.778 35.097 C 122.426 34.570,122.164 34.123,122.194 34.104 C 125.781 31.861,125.466 27.627,121.621 26.412 C 119.961 25.888,114.621 25.777,114.434 26.264 M143.611 26.111 C 143.550 26.172,143.500 29.322,143.500 33.111 L 143.500 40.000 145.000 40.000 L 146.500 40.000 146.503 35.208 L 146.506 30.417 147.003 31.208 C 147.276 31.643,147.500 32.085,147.500 32.189 C 147.500 32.294,147.725 32.745,148.000 33.192 C 148.275 33.639,148.500 34.065,148.500 34.138 C 148.500 34.265,149.078 35.412,150.700 38.500 L 151.444 39.917 153.391 39.964 L 155.337 40.011 155.293 33.047 L 155.250 26.083 153.833 26.083 L 152.417 26.083 152.333 30.583 L 152.250 35.083 150.680 32.000 C 147.208 25.184,147.900 26.000,145.592 26.000 C 144.564 26.000,143.672 26.050,143.611 26.111 M158.694 26.292 C 158.611 26.452,158.491 26.958,158.428 27.417 C 158.366 27.875,158.276 28.381,158.229 28.542 C 158.150 28.813,158.386 28.833,161.578 28.833 L 165.011 28.833 164.297 29.792 C 163.905 30.319,163.503 30.825,163.404 30.917 C 163.305 31.008,162.784 31.683,162.246 32.417 C 161.708 33.150,161.170 33.810,161.050 33.883 C 160.931 33.957,160.833 34.111,160.833 34.227 C 160.833 34.343,160.608 34.653,160.333 34.917 C 160.058 35.180,159.833 35.483,159.833 35.589 C 159.833 35.695,159.675 35.925,159.481 36.099 C 158.557 36.930,158.167 37.764,158.167 38.905 L 158.167 40.000 163.572 40.000 L 168.976 40.000 169.162 39.105 C 169.264 38.613,169.363 37.994,169.382 37.730 L 169.417 37.250 165.957 37.205 L 162.497 37.160 162.783 36.705 C 162.940 36.455,163.259 36.014,163.493 35.726 C 164.012 35.085,164.295 34.714,165.300 33.362 C 165.731 32.782,166.290 32.072,166.542 31.784 C 166.794 31.495,167.000 31.163,167.000 31.046 C 167.000 30.929,167.066 30.833,167.146 30.833 C 167.772 30.833,169.000 28.458,169.000 27.246 L 169.000 26.000 163.923 26.000 C 159.256 26.000,158.833 26.024,158.694 26.292 M172.167 33.000 L 172.167 40.000 176.755 40.000 C 180.280 40.000,181.359 39.952,181.409 39.792 C 181.445 39.677,181.522 39.040,181.581 38.375 L 181.687 37.167 178.510 37.167 L 175.333 37.167 175.333 35.750 L 175.333 34.333 178.090 34.333 L 180.847 34.333 180.798 32.958 L 180.750 31.583 178.042 31.538 L 175.333 31.492 175.333 30.250 L 175.333 29.008 178.375 28.962 C 181.300 28.918,181.416 28.904,181.392 28.583 C 181.378 28.400,181.316 27.744,181.253 27.125 L 181.140 26.000 176.653 26.000 L 172.167 26.000 172.167 33.000 M106.335 28.937 C 107.095 29.241,107.333 29.574,107.333 30.333 C 107.333 31.395,107.160 31.500,105.411 31.500 L 103.833 31.500 103.833 30.083 L 103.833 28.667 104.747 28.667 C 105.249 28.667,105.964 28.788,106.335 28.937 M135.474 29.261 C 137.425 30.633,137.785 34.181,136.188 36.308 C 134.699 38.290,131.532 37.479,130.685 34.899 C 129.372 30.898,132.524 27.187,135.474 29.261 M120.114 29.011 C 122.494 29.913,121.455 32.167,118.659 32.167 L 117.500 32.167 117.500 30.500 L 117.500 28.833 118.572 28.833 C 119.162 28.833,119.856 28.913,120.114 29.011 M107.204 34.638 C 108.952 35.719,107.683 37.293,105.042 37.321 L 103.833 37.333 103.833 35.729 L 103.833 34.125 105.221 34.198 C 106.271 34.253,106.754 34.360,107.204 34.638 M148.539 72.792 L 148.583 89.917 149.035 90.612 C 150.028 92.139,151.929 92.757,153.857 92.179 L 154.500 91.987 154.500 90.839 L 154.500 89.691 153.589 89.785 C 152.405 89.907,151.700 89.621,151.396 88.893 C 151.207 88.440,151.167 85.543,151.167 72.269 C 151.167 63.428,151.121 56.075,151.066 55.930 C 150.986 55.723,150.702 55.667,149.729 55.667 L 148.494 55.667 148.539 72.792 M108.417 58.100 C 104.337 58.637,102.172 59.749,100.687 62.070 C 99.106 64.541,99.127 68.795,100.731 70.982 C 101.909 72.589,104.179 74.226,106.917 75.442 C 107.558 75.727,108.646 76.211,109.333 76.518 C 110.021 76.825,110.897 77.284,111.280 77.538 C 111.663 77.792,112.058 78.000,112.158 78.000 C 112.509 78.000,114.761 80.425,115.143 81.215 C 115.627 82.214,115.620 85.051,115.132 85.917 C 114.977 86.192,114.752 86.603,114.633 86.831 C 113.157 89.658,106.259 90.737,102.320 88.759 C 101.854 88.525,101.396 88.333,101.302 88.333 C 101.208 88.333,100.793 88.105,100.379 87.825 C 99.293 87.092,99.094 87.191,99.033 88.497 C 98.959 90.069,99.022 90.194,100.202 90.791 C 104.231 92.832,111.211 92.802,114.261 90.732 C 114.584 90.513,114.892 90.333,114.945 90.333 C 115.345 90.333,117.161 88.032,117.554 87.028 C 119.079 83.131,118.305 79.472,115.433 77.000 C 114.264 75.994,110.974 74.000,110.482 74.000 C 110.003 74.000,105.571 71.761,104.991 71.226 C 104.757 71.010,104.520 70.833,104.466 70.833 C 104.296 70.833,103.248 69.724,103.026 69.310 C 102.911 69.094,102.656 68.617,102.460 68.250 C 101.248 65.979,102.684 62.602,105.394 61.350 C 108.261 60.024,113.482 60.364,116.043 62.042 C 116.771 62.518,116.833 62.431,116.833 60.943 L 116.833 59.553 116.034 59.118 C 114.917 58.510,110.144 57.872,108.417 58.100 M196.157 58.442 C 195.321 58.668,195.036 60.718,195.742 61.424 C 196.901 62.583,198.949 61.600,198.792 59.960 C 198.662 58.609,197.666 58.035,196.157 58.442 M267.581 58.698 C 267.535 58.818,267.517 66.304,267.540 75.333 L 267.583 91.750 268.875 91.799 L 270.167 91.847 270.167 85.795 L 270.167 79.743 273.458 79.746 C 282.659 79.756,287.573 75.762,287.292 68.504 C 287.108 63.773,284.823 60.785,280.167 59.189 L 278.417 58.589 273.040 58.534 C 268.717 58.490,267.648 58.522,267.581 58.698 M184.591 60.724 C 183.590 60.957,183.540 61.082,183.516 63.417 C 183.506 64.333,183.450 65.702,183.391 66.458 L 183.284 67.833 181.309 67.833 L 179.333 67.833 179.333 69.000 L 179.333 70.167 181.321 70.167 L 183.309 70.167 183.363 79.458 C 183.422 89.705,183.336 88.783,184.412 90.667 C 185.355 92.317,189.567 92.907,191.708 91.689 C 192.132 91.448,192.167 91.349,192.167 90.381 C 192.167 89.185,192.138 89.169,190.765 89.585 C 188.984 90.126,187.216 89.683,186.556 88.531 C 185.909 87.400,185.833 86.309,185.833 78.053 L 185.833 70.167 188.833 70.167 L 191.833 70.167 191.833 69.000 L 191.833 67.833 188.891 67.833 L 185.948 67.833 186.057 65.125 C 186.117 63.635,186.215 61.985,186.273 61.458 L 186.380 60.500 185.898 60.516 C 185.633 60.525,185.045 60.619,184.591 60.724 M330.728 60.696 C 329.886 60.850,329.871 60.863,329.761 61.551 C 329.629 62.375,329.345 66.111,329.338 67.120 L 329.333 67.823 327.375 67.870 L 325.417 67.917 325.364 68.653 C 325.255 70.172,325.248 70.167,327.420 70.167 L 329.333 70.167 329.333 78.674 C 329.333 89.442,329.453 90.178,331.421 91.527 C 332.757 92.443,335.664 92.604,337.375 91.857 L 338.167 91.512 338.167 90.423 C 338.167 89.180,338.144 89.167,336.765 89.585 C 334.994 90.123,333.420 89.707,332.567 88.476 L 332.083 87.779 332.037 78.973 L 331.991 70.167 334.996 70.167 L 338.000 70.167 338.000 69.000 L 338.000 67.833 334.974 67.833 L 331.948 67.833 332.060 64.958 C 332.122 63.377,332.218 61.727,332.274 61.292 C 332.391 60.391,332.393 60.391,330.728 60.696 M276.928 61.011 C 279.524 61.479,281.303 62.323,282.617 63.713 C 286.078 67.376,284.941 73.954,280.500 75.959 C 278.216 76.991,278.003 77.029,273.958 77.123 L 270.167 77.212 270.167 69.114 L 270.167 61.016 271.208 60.957 C 273.590 60.821,276.001 60.844,276.928 61.011 M130.050 67.679 C 124.994 68.845,121.664 73.695,121.668 79.886 C 121.670 82.170,122.370 85.250,123.198 86.605 C 123.414 86.960,123.691 87.448,123.813 87.689 C 125.040 90.111,128.668 92.128,132.089 92.290 C 137.508 92.546,141.282 89.762,143.102 84.167 C 144.116 81.049,143.272 74.283,141.595 72.084 C 141.359 71.775,141.167 71.454,141.167 71.371 C 141.167 71.057,138.657 68.944,137.723 68.470 C 135.637 67.412,132.575 67.096,130.050 67.679 M212.417 67.445 C 208.936 68.202,206.492 69.742,205.213 71.985 C 204.973 72.406,204.683 72.862,204.568 73.000 C 204.453 73.137,204.082 74.075,203.745 75.083 L 203.131 76.917 203.133 79.839 C 203.135 83.051,203.551 84.922,204.699 86.882 C 204.956 87.322,205.167 87.734,205.167 87.799 C 205.169 87.982,207.420 90.333,207.595 90.334 C 207.680 90.334,207.958 90.513,208.212 90.731 C 209.995 92.265,214.811 92.773,217.681 91.730 C 219.642 91.018,222.667 88.692,222.667 87.896 C 222.667 87.827,222.819 87.609,223.005 87.411 C 223.191 87.213,223.497 86.646,223.684 86.151 C 223.871 85.655,224.181 84.837,224.373 84.333 C 225.167 82.245,224.775 74.968,223.813 73.925 C 223.732 73.838,223.667 73.660,223.667 73.530 C 223.667 72.496,220.995 69.547,219.167 68.564 C 217.461 67.647,214.070 67.085,212.417 67.445 M237.750 67.637 C 236.329 67.949,235.280 68.349,235.094 68.650 C 235.031 68.751,234.863 68.833,234.720 68.833 C 234.451 68.833,233.644 69.454,232.709 70.381 L 232.168 70.917 232.168 70.148 C 232.167 69.726,232.119 69.032,232.061 68.607 L 231.955 67.833 230.709 67.833 L 229.464 67.833 229.571 68.458 C 229.630 68.802,229.722 74.205,229.775 80.465 L 229.872 91.847 231.061 91.799 L 232.250 91.750 232.293 82.719 L 232.336 73.687 233.293 72.715 C 238.198 67.732,244.747 69.290,245.351 75.583 C 245.421 76.317,245.484 80.273,245.490 84.375 L 245.500 91.833 246.841 91.833 L 248.183 91.833 248.122 82.958 C 248.052 72.783,248.013 72.464,246.601 70.417 C 244.838 67.860,241.501 66.812,237.750 67.637 M295.333 67.651 C 294.277 67.836,293.203 68.146,292.625 68.431 L 291.667 68.903 291.667 70.137 C 291.667 71.530,291.543 71.473,293.167 70.834 C 299.519 68.336,304.167 70.528,304.167 76.022 L 304.167 77.335 302.042 77.230 C 296.164 76.940,291.928 78.495,290.244 81.560 L 289.616 82.703 289.621 84.810 C 289.627 87.136,289.734 87.542,290.748 89.069 C 291.336 89.955,292.937 91.333,293.378 91.333 C 293.502 91.333,293.899 91.476,294.260 91.650 C 296.762 92.858,302.138 92.449,305.714 90.778 L 306.845 90.250 306.782 82.250 C 306.723 74.652,306.702 74.187,306.360 73.000 C 305.913 71.451,305.666 70.833,305.491 70.833 C 305.417 70.833,305.311 70.693,305.257 70.521 C 305.151 70.188,304.096 69.028,303.647 68.750 C 301.482 67.413,298.742 67.051,295.333 67.651 M321.333 67.666 C 319.703 68.069,318.102 68.976,316.707 70.285 L 315.583 71.341 315.543 70.295 C 315.521 69.720,315.461 68.931,315.408 68.542 L 315.313 67.833 313.972 67.833 L 312.632 67.833 312.739 68.542 C 312.799 68.931,312.889 74.331,312.940 80.542 L 313.033 91.833 314.240 91.833 L 315.447 91.833 315.556 87.708 C 315.617 85.440,315.666 81.550,315.666 79.065 L 315.667 74.546 316.180 73.898 C 317.832 71.811,320.257 70.464,323.042 70.087 L 323.833 69.980 323.833 68.656 L 323.833 67.333 323.208 67.345 C 322.865 67.352,322.021 67.496,321.333 67.666 M349.541 67.669 C 348.053 68.025,346.788 68.655,345.311 69.777 L 344.372 70.490 344.228 69.203 L 344.083 67.917 342.833 67.869 L 341.583 67.821 341.631 79.619 C 341.657 86.108,341.711 91.510,341.751 91.625 C 341.800 91.767,342.223 91.833,343.078 91.833 L 344.333 91.833 344.333 82.719 L 344.333 73.605 345.476 72.501 C 348.639 69.442,353.137 68.898,355.468 71.292 C 356.399 72.247,356.470 72.362,356.961 73.687 L 357.417 74.917 357.500 83.333 L 357.583 91.750 358.833 91.750 L 360.083 91.750 360.127 83.808 C 360.176 74.825,360.064 73.329,359.211 71.488 C 357.667 68.157,353.836 66.644,349.541 67.669 M373.917 67.445 C 369.492 68.407,367.218 70.494,365.619 75.060 L 365.086 76.583 365.090 80.000 L 365.093 83.417 365.643 84.917 C 367.989 91.316,373.876 93.871,381.031 91.596 C 383.059 90.950,383.167 90.844,383.167 89.481 C 383.167 88.145,383.100 88.108,381.828 88.753 C 379.275 90.046,374.092 90.044,372.134 88.748 C 371.789 88.520,371.444 88.333,371.366 88.333 C 370.964 88.333,369.177 86.151,368.637 85.000 C 367.967 83.574,367.498 81.072,367.644 79.708 C 367.662 79.545,369.433 79.499,375.875 79.497 C 380.773 79.496,384.184 79.431,384.333 79.336 C 384.663 79.128,384.667 74.923,384.338 73.917 C 384.037 72.992,383.099 71.109,382.726 70.680 C 382.140 70.005,380.996 68.945,380.623 68.732 C 378.672 67.612,375.736 67.049,373.917 67.445 M397.500 67.663 C 395.648 68.106,394.068 69.034,392.483 70.609 C 391.808 71.280,391.667 71.176,391.667 70.010 C 391.667 69.663,391.619 69.032,391.561 68.607 L 391.455 67.833 390.128 67.833 L 388.801 67.833 388.900 68.708 C 388.954 69.190,389.045 74.590,389.102 80.708 L 389.205 91.833 390.519 91.833 L 391.833 91.833 391.833 83.182 L 391.833 74.532 392.375 73.884 C 394.225 71.674,396.394 70.468,399.208 70.087 L 400.000 69.980 400.000 68.656 L 400.000 67.333 399.375 67.348 C 399.031 67.357,398.188 67.498,397.500 67.663 M157.734 68.065 C 157.685 68.193,157.669 72.186,157.698 76.940 L 157.751 85.583 158.334 87.191 C 159.591 90.659,161.718 92.154,165.599 92.299 C 168.332 92.401,172.119 91.124,172.918 89.831 C 173.108 89.524,173.333 89.842,173.333 90.416 C 173.333 91.674,173.513 91.833,174.930 91.833 L 176.202 91.833 176.088 91.125 C 176.025 90.735,175.937 85.335,175.892 79.125 L 175.811 67.833 174.489 67.833 L 173.167 67.833 173.166 77.292 L 173.166 86.750 172.500 87.377 C 169.790 89.926,164.692 90.650,162.919 88.737 C 162.713 88.515,162.473 88.333,162.384 88.333 C 162.064 88.333,160.915 86.099,160.719 85.094 C 160.583 84.403,160.517 81.515,160.510 75.958 L 160.500 67.833 159.161 67.833 C 158.172 67.833,157.800 67.894,157.734 68.065 M195.707 79.792 L 195.750 91.750 197.042 91.799 L 198.333 91.847 198.333 79.840 L 198.333 67.833 196.999 67.833 L 195.664 67.833 195.707 79.792 M135.683 70.375 C 136.197 70.627,136.672 70.833,136.740 70.833 C 136.884 70.833,137.629 71.498,138.429 72.341 C 141.207 75.266,141.744 82.091,139.491 85.844 C 136.821 90.293,131.340 91.134,127.424 87.696 C 127.099 87.410,126.833 87.111,126.833 87.031 C 126.833 86.951,126.675 86.742,126.482 86.567 C 125.728 85.886,124.822 83.600,124.555 81.704 C 123.762 76.071,126.135 71.392,130.500 69.983 C 131.526 69.652,134.700 69.892,135.683 70.375 M217.333 70.532 C 219.754 71.715,221.202 73.694,221.876 76.742 C 222.290 78.614,222.316 81.515,221.931 82.750 C 221.787 83.208,221.669 83.718,221.668 83.883 C 221.667 84.160,221.485 84.577,220.771 85.936 C 218.519 90.224,212.047 91.085,208.630 87.552 C 207.863 86.759,207.167 85.881,207.167 85.707 C 207.167 85.616,206.980 85.208,206.752 84.801 C 205.326 82.248,205.415 77.281,206.942 74.232 C 208.905 70.313,213.521 68.669,217.333 70.532 M378.229 70.348 C 380.370 71.426,381.507 73.126,382.002 75.988 C 382.251 77.423,382.728 77.333,374.807 77.333 L 367.822 77.333 367.930 76.458 C 368.527 71.611,374.135 68.284,378.229 70.348 M303.875 79.757 C 304.143 79.860,304.167 80.236,304.167 84.355 L 304.167 88.842 303.708 89.023 C 300.723 90.202,296.415 90.166,294.583 88.946 C 290.381 86.148,291.782 80.930,297.000 79.939 C 297.779 79.791,298.567 79.635,298.750 79.592 C 299.219 79.483,303.522 79.621,303.875 79.757 " stroke="none" fill="#3c444c" fill-rule="evenodd"></path><path d="M16.611 48.111 C 16.457 48.265,16.471 77.001,16.625 76.996 C 16.694 76.993,16.989 76.412,17.281 75.704 C 17.573 74.996,18.220 73.442,18.719 72.250 C 19.218 71.058,20.095 68.958,20.668 67.583 C 21.241 66.208,21.996 64.408,22.347 63.583 C 23.333 61.262,28.163 49.680,28.515 48.792 L 28.828 48.000 22.775 48.000 C 19.446 48.000,16.672 48.050,16.611 48.111 M37.667 48.051 C 37.667 48.079,38.088 49.110,38.603 50.342 C 39.118 51.575,39.707 52.996,39.913 53.500 C 40.118 54.004,41.731 57.867,43.497 62.083 C 45.263 66.300,46.953 70.350,47.253 71.083 C 48.063 73.063,49.309 76.014,49.577 76.583 C 49.781 77.018,49.813 75.189,49.823 62.542 L 49.833 48.000 43.750 48.000 C 40.404 48.000,37.667 48.023,37.667 48.051 M32.892 59.625 C 32.466 60.657,30.318 65.700,29.999 66.417 C 29.382 67.804,28.000 71.219,28.000 71.356 C 28.000 71.435,29.261 71.500,30.802 71.500 L 33.604 71.500 34.757 74.417 L 35.910 77.333 38.455 77.333 C 39.855 77.333,41.000 77.303,41.000 77.266 C 41.000 77.230,40.447 75.898,39.770 74.308 C 39.094 72.718,37.813 69.692,36.925 67.583 C 33.880 60.360,33.293 59.000,33.222 59.000 C 33.182 59.000,33.034 59.281,32.892 59.625 M27.944 82.778 C 27.883 82.839,27.833 83.476,27.833 84.194 C 27.833 85.326,27.795 85.500,27.542 85.501 C 23.643 85.513,22.648 92.671,26.404 93.686 C 27.191 93.899,28.610 93.792,29.284 93.469 L 29.750 93.246 29.794 87.956 L 29.838 82.667 28.947 82.667 C 28.457 82.667,28.006 82.717,27.944 82.778 M37.833 88.073 C 37.833 91.345,37.896 93.519,37.993 93.579 C 38.362 93.807,40.306 93.868,40.905 93.671 C 44.710 92.415,44.268 85.500,40.381 85.500 L 39.667 85.500 39.667 84.083 L 39.667 82.667 38.750 82.667 L 37.833 82.667 37.833 88.073 M18.095 86.868 C 17.652 88.820,17.123 91.092,16.920 91.917 C 16.480 93.700,16.469 93.667,17.502 93.667 L 18.317 93.667 18.605 92.327 L 18.893 90.987 20.063 91.035 L 21.233 91.083 21.491 92.333 L 21.750 93.583 22.708 93.633 C 23.882 93.695,23.912 94.293,22.443 88.333 L 21.231 83.417 20.066 83.368 L 18.902 83.320 18.095 86.868 M20.722 89.213 C 20.600 89.410,19.473 89.289,19.388 89.070 C 19.314 88.876,19.765 86.134,19.948 85.667 C 20.002 85.529,20.216 86.242,20.424 87.250 C 20.632 88.258,20.766 89.141,20.722 89.213 M33.083 85.620 C 30.055 86.355,30.192 93.187,33.246 93.760 C 35.391 94.163,36.667 92.621,36.667 89.627 C 36.667 86.596,35.310 85.079,33.083 85.620 M46.242 85.725 C 43.555 86.943,43.738 92.819,46.488 93.643 C 48.196 94.155,49.333 93.783,49.333 92.713 L 49.333 91.980 48.596 92.090 C 47.542 92.248,46.759 91.947,46.432 91.259 C 45.981 90.307,46.176 89.903,46.984 90.114 C 47.177 90.165,47.896 90.153,48.584 90.089 L 49.833 89.972 49.833 88.854 C 49.833 86.422,48.078 84.893,46.242 85.725 M27.833 89.573 C 27.833 92.158,27.801 92.254,27.033 91.986 C 25.370 91.407,25.783 87.167,27.503 87.167 C 27.817 87.167,27.833 87.284,27.833 89.573 M34.433 87.517 C 35.243 88.413,34.759 92.167,33.833 92.167 C 33.035 92.167,32.489 90.324,32.811 88.721 C 33.105 87.255,33.757 86.771,34.433 87.517 M40.731 87.326 C 42.068 87.834,41.965 91.027,40.582 91.933 C 39.764 92.469,39.667 92.232,39.667 89.700 C 39.667 86.994,39.695 86.932,40.731 87.326 M47.800 87.377 C 47.896 87.493,47.999 87.811,48.029 88.085 L 48.083 88.583 47.167 88.583 C 46.343 88.583,46.256 88.550,46.305 88.250 C 46.453 87.349,47.345 86.828,47.800 87.377 " stroke="none" fill="#fbf8f7" fill-rule="evenodd"></path><path d="M0.000 54.417 L 0.000 108.833 33.250 108.833 L 66.500 108.833 66.500 54.417 L 66.500 0.000 33.250 0.000 L 0.000 0.000 0.000 54.417 M49.959 62.627 C 50.001 77.252,49.966 78.348,49.492 77.042 C 49.401 76.790,49.263 76.433,49.186 76.250 C 49.108 76.067,48.967 75.729,48.873 75.500 C 48.778 75.271,48.575 74.783,48.422 74.417 C 48.269 74.050,48.083 73.600,48.007 73.417 C 47.499 72.178,46.936 70.838,46.735 70.391 C 46.606 70.103,46.500 69.821,46.500 69.765 C 46.500 69.709,46.343 69.308,46.150 68.873 C 45.958 68.439,45.737 67.933,45.659 67.750 C 45.582 67.567,45.356 67.042,45.158 66.583 C 44.960 66.125,44.694 65.506,44.566 65.208 C 44.438 64.910,44.221 64.412,44.083 64.100 C 43.946 63.788,43.833 63.490,43.833 63.438 C 43.833 63.386,43.646 62.933,43.417 62.432 C 43.188 61.931,43.000 61.448,43.000 61.358 C 43.000 61.269,42.787 60.758,42.527 60.223 C 41.859 58.850,41.500 58.014,41.500 57.832 C 41.500 57.746,41.303 57.242,41.063 56.713 C 40.469 55.402,40.250 54.892,39.864 53.917 C 39.683 53.458,39.263 52.446,38.930 51.667 C 38.598 50.887,38.263 50.100,38.186 49.917 C 38.109 49.733,37.923 49.300,37.773 48.953 C 37.257 47.762,36.862 47.843,43.458 47.790 C 46.735 47.764,49.529 47.746,49.667 47.749 C 49.887 47.754,49.922 49.540,49.959 62.627 M28.898 48.292 C 28.839 48.544,28.725 48.821,28.645 48.908 C 28.565 48.995,28.500 49.176,28.500 49.309 C 28.500 49.442,28.275 50.027,28.000 50.609 C 27.725 51.191,27.501 51.724,27.501 51.792 C 27.502 51.861,27.205 52.592,26.843 53.417 C 26.480 54.242,25.877 55.667,25.503 56.583 C 25.129 57.500,24.675 58.538,24.495 58.891 C 24.314 59.243,24.167 59.604,24.167 59.692 C 24.167 59.780,24.009 60.204,23.816 60.634 C 23.236 61.927,23.071 62.318,22.078 64.750 C 21.160 66.999,20.651 68.213,20.330 68.917 C 19.847 69.976,19.333 71.226,19.333 71.342 C 19.333 71.416,19.116 71.951,18.851 72.530 C 17.827 74.768,17.667 75.157,17.667 75.408 C 17.667 75.550,17.592 75.667,17.500 75.667 C 17.408 75.667,17.333 75.788,17.333 75.936 C 17.333 76.404,16.620 77.527,16.471 77.293 C 16.312 77.041,16.285 48.104,16.444 47.944 C 16.506 47.883,19.357 47.833,22.781 47.833 L 29.006 47.833 28.898 48.292 M33.673 59.428 C 33.823 59.697,34.111 60.359,34.313 60.901 C 34.516 61.442,34.858 62.267,35.075 62.734 C 35.291 63.201,35.651 64.033,35.875 64.583 C 36.572 66.299,37.682 68.903,37.844 69.206 C 37.930 69.365,38.000 69.603,38.000 69.734 C 38.000 69.865,38.056 69.997,38.125 70.028 C 38.194 70.058,38.429 70.533,38.648 71.083 C 38.867 71.633,39.261 72.557,39.523 73.137 C 39.785 73.716,40.000 74.258,40.000 74.341 C 40.000 74.473,40.592 75.841,41.023 76.706 C 41.386 77.436,41.290 77.472,38.792 77.530 C 37.485 77.560,36.281 77.556,36.116 77.520 C 35.797 77.452,35.224 76.318,34.505 74.333 C 33.501 71.560,33.791 71.757,30.643 71.704 C 27.972 71.659,27.474 71.550,27.812 71.089 C 27.881 70.994,28.147 70.392,28.402 69.750 C 29.057 68.103,29.098 68.004,29.471 67.167 C 29.655 66.754,30.268 65.329,30.832 64.000 C 31.396 62.671,31.965 61.366,32.096 61.099 C 32.226 60.833,32.333 60.558,32.333 60.488 C 32.333 60.112,33.029 58.815,33.200 58.872 C 33.310 58.909,33.523 59.159,33.673 59.428 M29.961 87.953 L 30.005 93.322 29.461 93.618 C 28.597 94.088,26.459 94.026,25.538 93.504 C 24.433 92.879,23.451 90.289,23.834 89.010 C 23.904 88.775,24.058 88.246,24.176 87.833 C 24.535 86.579,26.065 85.333,27.248 85.333 C 27.659 85.333,27.667 85.311,27.667 84.028 C 27.667 82.455,27.651 82.474,28.910 82.535 L 29.917 82.583 29.961 87.953 M39.929 83.092 C 39.991 83.418,39.991 84.056,39.931 84.509 L 39.822 85.333 40.605 85.333 C 43.717 85.333,44.910 90.337,42.417 92.937 C 41.272 94.130,38.162 94.462,37.713 93.439 C 37.545 93.055,37.581 82.940,37.752 82.664 C 37.808 82.574,38.295 82.500,38.836 82.500 L 39.818 82.500 39.929 83.092 M21.397 83.411 C 21.546 83.637,21.667 83.975,21.667 84.163 C 21.667 84.454,22.161 86.492,22.658 88.250 C 22.735 88.525,22.927 89.350,23.083 90.083 C 23.240 90.817,23.410 91.529,23.463 91.667 C 24.149 93.475,23.999 93.879,22.664 93.801 C 21.680 93.744,21.671 93.734,21.220 92.250 L 20.917 91.250 20.000 91.250 L 19.083 91.250 18.941 91.917 C 18.574 93.638,18.492 93.745,17.512 93.801 C 16.283 93.872,16.258 93.808,16.733 91.818 C 16.960 90.864,17.230 89.708,17.333 89.250 C 17.435 88.792,17.594 88.117,17.685 87.750 C 17.776 87.383,17.922 86.693,18.010 86.216 C 18.097 85.740,18.243 85.154,18.334 84.914 C 18.425 84.674,18.500 84.291,18.500 84.062 C 18.500 82.918,20.745 82.414,21.397 83.411 M35.148 85.657 C 37.506 86.860,37.519 92.425,35.167 93.636 C 32.754 94.877,30.768 93.175,30.756 89.856 C 30.744 86.318,32.727 84.422,35.148 85.657 M48.356 85.542 C 49.577 86.187,50.000 87.035,50.000 88.841 C 50.000 90.257,49.884 90.333,47.739 90.333 C 46.230 90.333,46.181 90.370,46.625 91.156 C 46.982 91.787,47.834 92.072,48.658 91.836 C 49.404 91.622,49.500 91.716,49.500 92.656 C 49.500 93.752,49.260 93.917,47.668 93.917 C 45.732 93.917,44.550 92.959,44.249 91.146 C 44.182 90.745,44.099 90.267,44.064 90.083 C 43.555 87.387,46.317 84.464,48.356 85.542 M19.954 86.777 C 19.541 87.430,19.616 89.000,20.060 89.000 C 20.410 89.000,20.497 88.923,20.484 88.625 C 20.453 87.895,20.077 86.584,19.954 86.777 M26.871 87.625 C 25.715 88.637,26.078 91.833,27.348 91.833 C 27.646 91.833,27.667 91.687,27.667 89.583 C 27.667 87.177,27.592 86.993,26.871 87.625 M33.552 87.464 C 32.782 87.954,32.817 91.599,33.595 91.898 C 34.286 92.163,34.667 91.357,34.667 89.631 C 34.667 87.933,34.210 87.046,33.552 87.464 M46.707 87.664 C 46.341 88.250,46.449 88.448,47.124 88.425 C 47.800 88.401,48.036 88.028,47.660 87.575 C 47.377 87.235,46.950 87.275,46.707 87.664 M39.959 87.615 C 39.795 87.919,39.820 91.805,39.986 91.908 C 40.933 92.493,41.882 89.568,41.200 88.167 C 40.926 87.605,40.150 87.260,39.959 87.615 " stroke="none" fill="#eb1423" fill-rule="evenodd"></path><path d="M16.500 47.958 C 16.500 48.072,21.444 48.069,26.917 47.952 C 28.108 47.927,26.252 47.890,22.792 47.870 C 19.331 47.850,16.500 47.890,16.500 47.958 M37.500 47.958 C 37.500 48.027,40.276 48.063,43.668 48.038 L 49.837 47.992 49.832 62.687 C 49.829 70.769,49.865 77.421,49.913 77.469 C 49.961 77.516,50.000 70.868,50.000 62.694 L 50.000 47.833 43.750 47.833 C 40.313 47.833,37.500 47.890,37.500 47.958 M27.194 51.924 C 26.914 52.537,26.968 52.667,27.270 52.110 C 27.411 51.850,27.495 51.606,27.457 51.568 C 27.419 51.530,27.300 51.690,27.194 51.924 M39.596 53.000 C 39.657 53.229,39.776 53.529,39.861 53.667 C 39.969 53.840,39.982 53.790,39.904 53.500 C 39.843 53.271,39.724 52.971,39.639 52.833 C 39.531 52.660,39.518 52.710,39.596 53.000 M33.067 59.026 C 32.998 59.137,33.021 59.173,33.122 59.111 C 33.217 59.052,33.388 59.231,33.503 59.507 C 33.618 59.784,33.744 59.978,33.785 59.937 C 33.863 59.859,33.371 58.833,33.256 58.833 C 33.217 58.833,33.133 58.920,33.067 59.026 M35.429 64.000 C 35.490 64.229,35.610 64.529,35.695 64.667 C 35.802 64.840,35.815 64.790,35.738 64.500 C 35.676 64.271,35.557 63.971,35.472 63.833 C 35.365 63.660,35.351 63.710,35.429 64.000 M22.027 64.257 C 21.748 64.870,21.801 65.001,22.103 64.444 C 22.244 64.183,22.328 63.939,22.290 63.901 C 22.252 63.863,22.134 64.023,22.027 64.257 M20.860 67.090 C 20.581 67.703,20.634 67.834,20.936 67.277 C 21.077 67.017,21.162 66.773,21.123 66.735 C 21.085 66.696,20.967 66.857,20.860 67.090 M45.758 67.875 C 45.820 68.081,45.939 68.323,46.023 68.413 C 46.107 68.502,46.091 68.334,45.988 68.038 C 45.777 67.432,45.582 67.295,45.758 67.875 M20.111 68.861 C 19.960 69.245,19.864 69.586,19.898 69.620 C 19.931 69.653,20.083 69.368,20.236 68.986 C 20.389 68.604,20.485 68.263,20.450 68.227 C 20.414 68.192,20.262 68.477,20.111 68.861 M27.846 71.375 C 27.834 71.642,28.074 71.667,30.658 71.667 C 33.166 71.667,33.504 71.699,33.671 71.958 C 33.846 72.231,33.852 72.230,33.763 71.945 C 33.710 71.777,33.667 71.608,33.667 71.570 C 33.667 71.531,32.398 71.500,30.847 71.500 C 28.748 71.500,28.006 71.447,27.944 71.292 C 27.893 71.167,27.854 71.201,27.846 71.375 M39.695 74.175 C 39.792 74.455,39.903 74.653,39.941 74.615 C 40.023 74.532,39.709 73.667,39.596 73.667 C 39.553 73.667,39.597 73.895,39.695 74.175 M38.417 77.333 L 35.750 77.430 38.458 77.465 C 40.176 77.487,41.167 77.439,41.167 77.333 C 41.167 77.242,41.148 77.183,41.125 77.202 C 41.102 77.221,39.883 77.280,38.417 77.333 M27.833 82.626 C 27.833 82.696,28.190 82.729,28.625 82.701 C 29.891 82.620,30.001 82.540,28.875 82.519 C 28.302 82.509,27.833 82.557,27.833 82.626 M37.785 82.604 C 37.626 82.763,37.633 93.459,37.792 93.558 C 37.860 93.600,37.896 91.167,37.871 88.151 L 37.825 82.667 38.739 82.667 L 39.654 82.667 39.712 84.084 L 39.771 85.501 39.760 84.042 L 39.750 82.583 38.827 82.534 C 38.319 82.507,37.850 82.539,37.785 82.604 M18.729 83.411 C 18.677 83.546,18.674 83.752,18.721 83.870 C 18.768 83.987,18.813 83.909,18.820 83.695 C 18.833 83.319,18.873 83.309,20.084 83.362 C 20.771 83.392,21.334 83.360,21.334 83.292 C 21.333 83.036,18.829 83.151,18.729 83.411 M19.955 85.601 C 19.888 85.668,19.836 85.878,19.838 86.069 C 19.843 86.390,19.857 86.394,20.017 86.119 C 20.203 85.798,20.156 85.400,19.955 85.601 M25.917 85.812 C 25.642 85.983,25.230 86.339,25.002 86.603 C 24.650 87.009,24.679 86.998,25.189 86.529 C 25.520 86.224,26.082 85.871,26.437 85.745 C 26.812 85.611,26.943 85.512,26.750 85.508 C 26.567 85.504,26.192 85.641,25.917 85.812 M32.069 86.095 L 31.417 86.691 32.083 86.193 C 32.450 85.920,32.900 85.660,33.083 85.617 C 33.405 85.541,33.405 85.538,33.069 85.519 C 32.878 85.509,32.428 85.768,32.069 86.095 M41.788 85.827 C 42.195 86.012,42.635 86.380,42.829 86.699 C 43.014 87.002,43.166 87.166,43.166 87.064 C 43.168 86.557,41.896 85.494,41.300 85.504 C 41.181 85.506,41.401 85.651,41.788 85.827 M48.330 85.792 C 48.649 85.952,49.080 86.338,49.288 86.650 C 49.496 86.961,49.667 87.121,49.667 87.005 C 49.667 86.678,48.410 85.500,48.061 85.500 C 47.860 85.500,47.954 85.603,48.330 85.792 M35.015 85.708 C 35.053 85.731,35.347 85.975,35.667 86.250 L 36.250 86.750 35.760 86.208 C 35.491 85.910,35.198 85.667,35.108 85.667 C 35.018 85.667,34.976 85.685,35.015 85.708 M17.926 86.926 C 17.863 87.260,17.845 87.567,17.886 87.608 C 17.927 87.649,18.011 87.409,18.074 87.074 C 18.137 86.740,18.155 86.433,18.114 86.392 C 18.073 86.351,17.989 86.591,17.926 86.926 M22.195 87.333 C 22.203 87.766,22.466 88.478,22.472 88.083 C 22.474 87.900,22.412 87.600,22.333 87.417 C 22.246 87.212,22.192 87.180,22.195 87.333 M33.234 87.542 C 32.919 87.914,32.919 87.914,33.250 87.642 C 33.433 87.491,33.733 87.331,33.917 87.287 C 34.237 87.208,34.237 87.205,33.901 87.186 C 33.709 87.175,33.409 87.335,33.234 87.542 M39.740 87.383 C 39.522 87.950,39.750 92.079,40.000 92.097 C 40.144 92.108,40.162 92.086,40.042 92.045 C 39.603 91.898,39.762 87.370,40.208 87.284 L 40.583 87.212 40.203 87.189 C 39.994 87.177,39.785 87.264,39.740 87.383 M49.885 88.917 C 49.886 89.467,49.917 89.672,49.954 89.372 C 49.991 89.072,49.990 88.622,49.952 88.372 C 49.914 88.122,49.884 88.367,49.885 88.917 M48.000 88.321 C 48.000 88.471,47.742 88.515,47.099 88.474 C 46.603 88.442,46.233 88.473,46.275 88.542 C 46.395 88.735,47.966 88.689,48.090 88.489 C 48.151 88.391,48.155 88.266,48.100 88.211 C 48.045 88.156,48.000 88.206,48.000 88.321 M34.717 89.167 C 34.717 89.671,34.748 89.877,34.786 89.625 C 34.824 89.373,34.824 88.960,34.786 88.708 C 34.748 88.456,34.717 88.662,34.717 89.167 M36.726 89.750 C 36.725 90.575,36.754 90.934,36.788 90.547 C 36.823 90.160,36.824 89.485,36.789 89.047 C 36.755 88.609,36.726 88.925,36.726 89.750 M41.553 89.333 C 41.553 89.929,41.584 90.173,41.621 89.875 C 41.658 89.577,41.658 89.090,41.621 88.792 C 41.584 88.494,41.553 88.737,41.553 89.333 M43.553 89.333 C 43.553 89.929,43.584 90.173,43.621 89.875 C 43.658 89.577,43.658 89.090,43.621 88.792 C 43.584 88.494,43.553 88.737,43.553 89.333 M32.712 89.667 C 32.712 90.079,32.745 90.248,32.784 90.042 C 32.824 89.835,32.824 89.498,32.784 89.292 C 32.745 89.085,32.712 89.254,32.712 89.667 M44.209 89.750 C 44.211 90.117,44.245 90.247,44.285 90.040 C 44.324 89.832,44.323 89.532,44.281 89.373 C 44.239 89.214,44.207 89.383,44.209 89.750 M17.104 90.521 C 16.965 91.216,17.100 91.350,17.250 90.667 C 17.313 90.379,17.330 90.108,17.288 90.066 C 17.245 90.023,17.163 90.228,17.104 90.521 M48.960 90.118 C 49.168 90.158,49.468 90.156,49.627 90.115 C 49.786 90.073,49.617 90.040,49.250 90.042 C 48.883 90.044,48.753 90.078,48.960 90.118 M26.085 90.661 C 26.133 90.979,26.249 91.315,26.341 91.408 C 26.454 91.521,26.457 91.413,26.351 91.080 C 26.066 90.185,25.995 90.074,26.085 90.661 M34.416 91.538 C 34.199 92.030,33.733 92.106,33.279 91.723 L 32.917 91.417 33.234 91.792 C 33.716 92.361,34.859 91.994,34.641 91.340 C 34.608 91.242,34.507 91.331,34.416 91.538 M31.172 92.127 C 31.169 92.243,31.410 92.584,31.708 92.885 C 32.006 93.186,32.091 93.241,31.897 93.008 C 31.703 92.774,31.462 92.433,31.361 92.250 C 31.260 92.067,31.175 92.012,31.172 92.127 M47.794 92.118 C 48.001 92.158,48.301 92.156,48.460 92.115 C 48.620 92.073,48.450 92.040,48.083 92.042 C 47.717 92.044,47.586 92.078,47.794 92.118 M42.240 92.875 L 41.750 93.417 42.292 92.927 C 42.797 92.471,42.910 92.333,42.781 92.333 C 42.752 92.333,42.509 92.577,42.240 92.875 M44.833 92.552 C 44.833 92.581,45.077 92.825,45.375 93.094 L 45.917 93.583 45.427 93.042 C 44.971 92.537,44.833 92.423,44.833 92.552 M23.667 93.487 C 23.667 93.638,23.391 93.680,22.682 93.640 C 22.141 93.609,21.733 93.640,21.775 93.708 C 21.896 93.902,23.633 93.856,23.757 93.656 C 23.817 93.558,23.822 93.433,23.767 93.378 C 23.712 93.323,23.667 93.372,23.667 93.487 M16.651 93.718 C 16.726 93.793,17.154 93.829,17.602 93.799 L 18.417 93.745 17.466 93.664 C 16.943 93.620,16.577 93.644,16.651 93.718 M27.208 93.948 C 27.369 93.990,27.631 93.990,27.792 93.948 C 27.952 93.906,27.821 93.872,27.500 93.872 C 27.179 93.872,27.048 93.906,27.208 93.948 M39.375 93.948 C 39.535 93.990,39.798 93.990,39.958 93.948 C 40.119 93.906,39.987 93.872,39.667 93.872 C 39.346 93.872,39.215 93.906,39.375 93.948 M47.375 93.948 C 47.535 93.990,47.798 93.990,47.958 93.948 C 48.119 93.906,47.987 93.872,47.667 93.872 C 47.346 93.872,47.215 93.906,47.375 93.948 " stroke="none" fill="#e86a66" fill-rule="evenodd"></path><path d="M16.413 62.583 C 16.413 70.650,16.433 73.974,16.458 69.971 C 16.483 65.967,16.483 59.367,16.458 55.304 C 16.433 51.241,16.413 54.517,16.413 62.583 M27.031 52.591 C 26.529 53.625,26.585 53.770,27.103 52.775 C 27.334 52.331,27.494 51.939,27.460 51.904 C 27.425 51.869,27.232 52.179,27.031 52.591 M39.012 51.917 C 39.012 52.008,39.119 52.271,39.250 52.500 C 39.381 52.729,39.488 52.842,39.488 52.750 C 39.488 52.658,39.381 52.396,39.250 52.167 C 39.119 51.938,39.012 51.825,39.012 51.917 M24.688 58.104 C 24.578 58.346,24.526 58.581,24.572 58.628 C 24.619 58.675,24.737 58.505,24.833 58.250 C 25.062 57.649,24.947 57.534,24.688 58.104 M23.854 60.104 C 23.744 60.346,23.692 60.581,23.739 60.628 C 23.786 60.675,23.903 60.505,24.000 60.250 C 24.229 59.649,24.114 59.534,23.854 60.104 M43.091 61.708 C 43.153 61.915,43.273 62.157,43.357 62.246 C 43.440 62.336,43.425 62.167,43.322 61.871 C 43.110 61.266,42.916 61.128,43.091 61.708 M43.924 63.708 C 43.986 63.915,44.106 64.157,44.190 64.246 C 44.274 64.336,44.258 64.167,44.155 63.871 C 43.944 63.266,43.749 63.128,43.924 63.708 M37.014 67.583 C 37.014 67.675,37.158 68.012,37.333 68.333 C 37.509 68.654,37.653 68.842,37.653 68.750 C 37.653 68.658,37.509 68.321,37.333 68.000 C 37.158 67.679,37.014 67.492,37.014 67.583 M38.197 70.417 C 38.302 70.647,38.410 70.812,38.437 70.785 C 38.539 70.684,38.289 70.000,38.151 70.000 C 38.072 70.000,38.093 70.188,38.197 70.417 M19.027 71.757 C 18.748 72.370,18.801 72.501,19.103 71.944 C 19.244 71.683,19.328 71.439,19.290 71.401 C 19.252 71.363,19.134 71.523,19.027 71.757 M48.258 74.042 C 48.320 74.248,48.439 74.490,48.523 74.580 C 48.607 74.669,48.591 74.500,48.488 74.205 C 48.277 73.599,48.082 73.461,48.258 74.042 M40.181 75.083 C 40.181 75.175,40.324 75.512,40.500 75.833 C 40.676 76.154,40.819 76.342,40.819 76.250 C 40.819 76.158,40.676 75.821,40.500 75.500 C 40.324 75.179,40.181 74.992,40.181 75.083 M49.428 76.833 C 49.488 77.063,49.604 77.321,49.685 77.408 C 49.923 77.663,49.850 77.298,49.570 76.833 L 49.319 76.417 49.428 76.833 M27.667 83.989 L 27.667 85.312 27.125 85.379 C 26.592 85.446,26.593 85.447,27.208 85.473 L 27.833 85.500 27.833 84.083 C 27.833 83.304,27.796 82.667,27.750 82.667 C 27.704 82.667,27.667 83.262,27.667 83.989 M29.908 87.833 C 29.908 90.721,29.930 91.902,29.958 90.458 C 29.986 89.015,29.986 86.652,29.958 85.208 C 29.930 83.765,29.908 84.946,29.908 87.833 M18.776 83.125 C 18.733 83.194,19.085 83.229,19.557 83.202 C 21.090 83.117,21.276 83.050,20.052 83.025 C 19.392 83.011,18.818 83.056,18.776 83.125 M39.883 83.833 C 39.883 84.337,39.915 84.544,39.953 84.292 C 39.991 84.040,39.991 83.627,39.953 83.375 C 39.915 83.123,39.883 83.329,39.883 83.833 M21.433 83.944 C 21.587 84.583,21.667 84.643,21.667 84.121 C 21.667 83.882,21.589 83.638,21.493 83.579 C 21.380 83.509,21.359 83.635,21.433 83.944 M33.375 85.453 C 33.627 85.491,34.040 85.491,34.292 85.453 C 34.544 85.415,34.337 85.383,33.833 85.383 C 33.329 85.383,33.123 85.415,33.375 85.453 M40.208 85.453 C 40.460 85.491,40.873 85.491,41.125 85.453 C 41.377 85.415,41.171 85.383,40.667 85.383 C 40.162 85.383,39.956 85.415,40.208 85.453 M46.074 85.596 C 45.896 85.740,45.862 85.797,46.000 85.721 C 46.137 85.646,46.700 85.540,47.250 85.484 L 48.250 85.384 47.324 85.359 C 46.697 85.342,46.292 85.418,46.074 85.596 M48.987 86.055 C 49.412 86.523,49.503 86.580,49.495 86.375 C 49.492 86.306,49.286 86.106,49.036 85.930 L 48.583 85.610 48.987 86.055 M19.953 86.222 C 19.768 86.694,19.798 86.935,20.016 86.718 C 20.116 86.617,20.170 86.396,20.136 86.226 C 20.076 85.928,20.069 85.928,19.953 86.222 M24.866 86.550 C 24.573 86.852,24.336 87.208,24.338 87.341 C 24.342 87.501,24.406 87.470,24.527 87.250 C 24.629 87.067,24.903 86.710,25.137 86.458 C 25.740 85.809,25.508 85.887,24.866 86.550 M22.190 86.833 C 22.190 86.971,22.255 87.233,22.333 87.417 C 22.424 87.627,22.477 87.658,22.477 87.500 C 22.477 87.362,22.412 87.100,22.333 86.917 C 22.243 86.707,22.190 86.676,22.190 86.833 M27.667 89.571 C 27.667 91.562,27.635 91.817,27.375 91.885 C 27.156 91.942,27.176 91.966,27.458 91.981 C 27.830 92.000,27.833 91.981,27.833 89.667 C 27.833 88.383,27.796 87.333,27.750 87.333 C 27.704 87.333,27.667 88.340,27.667 89.571 M39.833 87.460 C 39.833 87.530,40.075 87.586,40.371 87.585 C 40.821 87.584,40.956 87.679,41.197 88.167 C 41.355 88.487,41.488 88.629,41.492 88.481 C 41.507 87.984,40.843 87.333,40.321 87.333 C 40.053 87.333,39.833 87.390,39.833 87.460 M46.509 87.734 C 46.391 87.954,46.335 88.235,46.384 88.359 C 46.438 88.495,46.479 88.449,46.487 88.242 C 46.494 88.054,46.589 87.811,46.697 87.703 C 46.806 87.594,46.856 87.467,46.809 87.420 C 46.761 87.372,46.626 87.514,46.509 87.734 M32.996 88.094 C 32.906 88.329,32.845 89.061,32.860 89.719 L 32.886 90.917 32.988 89.500 C 33.045 88.721,33.150 87.990,33.222 87.875 C 33.294 87.760,33.309 87.667,33.256 87.667 C 33.202 87.667,33.085 87.859,32.996 88.094 M19.526 88.083 C 19.509 88.267,19.450 88.585,19.395 88.792 C 19.302 89.140,19.348 89.167,20.041 89.167 C 20.767 89.167,20.785 89.155,20.690 88.708 C 20.602 88.290,20.588 88.283,20.535 88.625 C 20.427 89.323,19.700 89.125,19.621 88.375 C 19.585 88.031,19.542 87.900,19.526 88.083 M37.560 89.500 C 37.560 90.371,37.588 90.727,37.623 90.292 C 37.657 89.856,37.657 89.144,37.623 88.708 C 37.588 88.273,37.560 88.629,37.560 89.500 M22.598 88.667 C 22.770 89.561,23.014 90.044,22.893 89.250 C 22.836 88.883,22.722 88.471,22.638 88.333 C 22.539 88.170,22.525 88.286,22.598 88.667 M17.437 88.590 C 17.380 88.739,17.340 88.986,17.348 89.139 C 17.356 89.292,17.428 89.195,17.509 88.925 C 17.666 88.399,17.610 88.139,17.437 88.590 M30.724 89.583 C 30.724 90.317,30.754 90.596,30.789 90.204 C 30.824 89.812,30.824 89.212,30.788 88.871 C 30.752 88.529,30.723 88.850,30.724 89.583 M23.792 89.142 C 23.747 89.311,23.767 89.742,23.836 90.100 C 23.956 90.720,23.963 90.706,23.981 89.792 C 24.000 88.814,23.936 88.591,23.792 89.142 M26.042 89.583 C 26.044 89.950,26.078 90.080,26.118 89.873 C 26.158 89.666,26.156 89.366,26.115 89.206 C 26.073 89.047,26.040 89.217,26.042 89.583 M44.147 90.703 C 44.224 91.166,44.247 91.189,44.300 90.856 C 44.334 90.639,44.293 90.393,44.209 90.309 C 44.116 90.216,44.092 90.372,44.147 90.703 M47.042 90.289 C 47.477 90.324,48.190 90.324,48.625 90.289 C 49.060 90.255,48.704 90.227,47.833 90.227 C 46.962 90.227,46.606 90.255,47.042 90.289 M41.121 90.955 C 40.760 91.752,40.869 91.862,41.242 91.076 C 41.400 90.744,41.499 90.444,41.463 90.408 C 41.428 90.372,41.274 90.618,41.121 90.955 M46.339 90.921 C 46.331 91.170,46.824 91.833,47.016 91.833 C 47.115 91.833,47.109 91.751,47.001 91.625 C 46.902 91.510,46.714 91.267,46.583 91.083 C 46.451 90.900,46.342 90.827,46.339 90.921 M30.836 91.431 C 30.837 91.606,30.915 91.862,31.008 92.000 C 31.131 92.183,31.147 92.115,31.065 91.750 C 30.928 91.137,30.832 91.004,30.836 91.431 M44.345 91.615 C 44.339 91.816,44.408 92.027,44.500 92.083 C 44.697 92.205,44.697 92.042,44.500 91.583 C 44.362 91.262,44.356 91.263,44.345 91.615 M23.433 92.111 C 23.587 92.750,23.667 92.810,23.667 92.288 C 23.667 92.049,23.589 91.805,23.493 91.746 C 23.380 91.676,23.359 91.801,23.433 92.111 M49.114 91.782 C 49.223 91.860,49.343 92.297,49.381 92.753 L 49.450 93.583 49.433 92.680 C 49.421 92.028,49.347 91.757,49.167 91.709 C 48.993 91.662,48.977 91.684,49.114 91.782 M18.583 92.667 C 18.520 92.955,18.506 93.228,18.552 93.274 C 18.597 93.320,18.687 93.121,18.750 92.833 C 18.813 92.545,18.828 92.272,18.782 92.226 C 18.736 92.180,18.647 92.379,18.583 92.667 M35.938 92.860 C 35.689 93.242,35.605 93.453,35.753 93.331 C 36.005 93.122,36.577 92.167,36.451 92.167 C 36.419 92.167,36.188 92.479,35.938 92.860 M42.346 92.903 C 42.138 93.125,41.747 93.398,41.478 93.509 C 41.209 93.620,41.022 93.744,41.063 93.785 C 41.188 93.910,42.064 93.386,42.487 92.933 C 42.710 92.695,42.854 92.500,42.808 92.500 C 42.762 92.500,42.554 92.681,42.346 92.903 M31.749 93.140 C 31.931 93.355,32.230 93.608,32.415 93.703 C 32.769 93.884,32.717 93.828,31.918 93.164 C 31.437 92.765,31.431 92.764,31.749 93.140 " stroke="none" fill="#ce3937" fill-rule="evenodd"></path></g></svg>