<svg xmlns="http://www.w3.org/2000/svg" viewBox="0 0 244.98 71.99"  xmlns:v="https://vecta.io/nano"><rect width="244.98" height="71.99" rx="8.05" fill="#222d64"/><path d="M45.1,14.38a13.86,13.86,0,0,1,22.21,2.93,16.81,16.81,0,0,1,6.88-1.47,17.18,17.18,0,0,1,0,34.36,16.84,16.84,0,0,1-3.35-.34A12.45,12.45,0,0,1,54.53,55a14.2,14.2,0,0,1-26.4-.65,12.78,12.78,0,0,1-2.71.29,13.35,13.35,0,0,1-6.59-24.86A15.34,15.34,0,0,1,45.1,14.38Z" fill="#009ddc"/><g fill="#fff"><path d="M23.68 37c-.05.13 0 .16 0 .18s.3.19.45.28a4.91 4.91 0 0 0 2.36.55c1.62 0 2.63-.86 2.63-2.25h0c0-1.28-1.14-1.75-2.2-2.08l-.14-.05c-.8-.26-1.5-.49-1.5-1h0c0-.45.41-.79 1-.79a4.58 4.58 0 0 1 2 .53s.16.1.22 0l.33-.89a.16.16 0 0 0-.08-.18 4.6 4.6 0 0 0-2.32-.62h-.16a2.26 2.26 0 0 0-2.52 2.18h0c0 1.36 1.14 1.8 2.21 2.1l.17.06c.78.23 1.45.44 1.45 1h0c0 .5-.43.87-1.14.87a3.77 3.77 0 0 1-2.08-.6l-.27-.17c-.05 0-.16-.08-.21.08zm23.72 0v.18c0 .02.3.19.45.28a4.91 4.91 0 0 0 2.36.55c1.62 0 2.63-.86 2.63-2.25h0c0-1.28-1.14-1.75-2.2-2.08l-.14-.05c-.8-.26-1.5-.49-1.5-1h0c0-.45.41-.79 1-.79a4.58 4.58 0 0 1 2 .53s.16.1.22 0l.33-.89a.16.16 0 0 0-.08-.18 4.6 4.6 0 0 0-2.32-.62h-.16a2.26 2.26 0 0 0-2.52 2.18h0c0 1.36 1.14 1.8 2.21 2.1l.17.06c.78.23 1.45.44 1.45 1h0c0 .5-.43.87-1.14.87a3.77 3.77 0 0 1-2.08-.6l-.27-.17a.13.13 0 0 0-.21.08zm17.54-4.15a3.26 3.26 0 0 0-.61-1.17 3 3 0 0 0-1-.79 3.77 3.77 0 0 0-2.9 0 2.85 2.85 0 0 0-1 .79 3.28 3.28 0 0 0-.62 1.17 5.39 5.39 0 0 0 0 2.91 3.28 3.28 0 0 0 .62 1.17 2.74 2.74 0 0 0 1 .79 3.89 3.89 0 0 0 2.9 0 2.91 2.91 0 0 0 1-.79 3.26 3.26 0 0 0 .61-1.17 5.39 5.39 0 0 0 0-2.91m-1.35 1.46a3.28 3.28 0 0 1-.44 1.83 1.65 1.65 0 0 1-2.62 0 3.28 3.28 0 0 1-.43-1.83 3.32 3.32 0 0 1 .43-1.84 1.68 1.68 0 0 1 2.62 0 3.31 3.31 0 0 1 .44 1.84"/><path d="M76.05 36.58a.14.14 0 0 0-.18-.08 3.6 3.6 0 0 1-.63.18 5.5 5.5 0 0 1-.74 0 2.07 2.07 0 0 1-1.5-.53 2.53 2.53 0 0 1-.58-1.85 2.79 2.79 0 0 1 .52-1.78 1.74 1.74 0 0 1 1.5-.66 4.58 4.58 0 0 1 1.43.2s.1 0 .15-.09l.33-.92a.12.12 0 0 0-.08-.16 5.27 5.27 0 0 0-.9-.23 6.2 6.2 0 0 0-1-.07 3.72 3.72 0 0 0-1.5.29 3 3 0 0 0-1.09.79 3.45 3.45 0 0 0-.66 1.17 4.6 4.6 0 0 0-.22 1.46 3.87 3.87 0 0 0 .9 2.69 3.42 3.42 0 0 0 2.67 1 5.52 5.52 0 0 0 1.91-.34.14.14 0 0 0 .06-.17zM83 32.6a2.81 2.81 0 0 0-.59-1.07 2.68 2.68 0 0 0-.87-.67 3.32 3.32 0 0 0-1.31-.26 3.54 3.54 0 0 0-1.51.29 3.06 3.06 0 0 0-1.06.81 3.5 3.5 0 0 0-.66 1.18 5.33 5.33 0 0 0-.2 1.47 4.86 4.86 0 0 0 .2 1.46 3.1 3.1 0 0 0 .68 1.19 3 3 0 0 0 1.16.76 4.58 4.58 0 0 0 1.66.24 4.66 4.66 0 0 0 2.3-.46s.1-.07 0-.21l-.3-.84a.13.13 0 0 0-.17-.08 4.47 4.47 0 0 1-1.88.34 1.87 1.87 0 0 1-2.1-2.07H83a.13.13 0 0 0 .13-.12A4.8 4.8 0 0 0 83 32.6zm-4.56.95a2.92 2.92 0 0 1 .37-1.08 1.48 1.48 0 0 1 1.31-.66 1.42 1.42 0 0 1 1.28.66 2.26 2.26 0 0 1 .31 1.09zM46.3 32.6a2.81 2.81 0 0 0-.58-1.07 2.91 2.91 0 0 0-.87-.67 3.41 3.41 0 0 0-1.32-.26 3.54 3.54 0 0 0-1.51.29 3 3 0 0 0-1.02.81 3.17 3.17 0 0 0-.62 1.18 5.33 5.33 0 0 0-.2 1.47 4.86 4.86 0 0 0 .21 1.46A3 3 0 0 0 41 37a3 3 0 0 0 1.15.76 4.58 4.58 0 0 0 1.66.27 4.74 4.74 0 0 0 2.31-.46s.1-.07 0-.21l-.3-.84a.14.14 0 0 0-.18-.08 4.41 4.41 0 0 1-1.87.34 2.21 2.21 0 0 1-1.57-.54 2.14 2.14 0 0 1-.53-1.53h4.63a.14.14 0 0 0 .14-.12 5.12 5.12 0 0 0-.14-1.99zm-4.55.95a2.6 2.6 0 0 1 .37-1.08 1.48 1.48 0 0 1 1.31-.66 1.44 1.44 0 0 1 1.28.66 2.25 2.25 0 0 1 .3 1.09z" fill-rule="evenodd"/><path d="M33.67 33.34a6.75 6.75 0 0 0-.71 0 4.22 4.22 0 0 0-1.13.15 2.86 2.86 0 0 0-.95.44 2.12 2.12 0 0 0-.88 1.78 2.4 2.4 0 0 0 .21 1 1.86 1.86 0 0 0 .59.71 2.44 2.44 0 0 0 .94.41 5.57 5.57 0 0 0 1.21.12 9.09 9.09 0 0 0 1.39-.11l1.15-.23.32-.08a.14.14 0 0 0 .11-.15v-4.14a2.59 2.59 0 0 0-.72-2 3.13 3.13 0 0 0-2.11-.63 8.26 8.26 0 0 0-1.22.11 4.5 4.5 0 0 0-1.41.52.14.14 0 0 0 0 .18l.32.87a.11.11 0 0 0 .15.08H31a4.72 4.72 0 0 1 2-.47 1.81 1.81 0 0 1 1.13.3c.25.19.38.48.38 1.09v.19zm-1.82 3.21a.86.86 0 0 1-.26-.27 1.09 1.09 0 0 1-.14-.59 1 1 0 0 1 .41-.89 2.07 2.07 0 0 1 1.33-.33 10.35 10.35 0 0 1 1.24.1v2.09a9.82 9.82 0 0 1-1.24.16 2 2 0 0 1-1.34-.27z"/><path d="M70.6 31a.13.13 0 0 0-.07-.17 4.2 4.2 0 0 0-.77-.13 2.33 2.33 0 0 0-1.18.19 2.12 2.12 0 0 0-.77.57v-.56a.13.13 0 0 0-.13-.13H66.5a.13.13 0 0 0-.13.13v6.83a.14.14 0 0 0 .14.14h1.2a.14.14 0 0 0 .14-.14V34.3a4 4 0 0 1 .15-1.2 1.7 1.7 0 0 1 .41-.67 1.21 1.21 0 0 1 .56-.34 2.06 2.06 0 0 1 .62-.09 2.73 2.73 0 0 1 .5.06.15.15 0 0 0 .17-.12l.34-.94zm-11.29-3.19l-.45-.11a3.92 3.92 0 0 0-.63 0 2.6 2.6 0 0 0-1.93.69 3.73 3.73 0 0 0-.92 2.08l-.06.31h-1a.14.14 0 0 0-.15.13l-.17.95c0 .09 0 .15.15.15h1l-1 5.73a7.56 7.56 0 0 1-.27 1.13 2.31 2.31 0 0 1-.32.65.84.84 0 0 1-.42.32 1.53 1.53 0 0 1-.54.08 2.33 2.33 0 0 1-.37 0 .92.92 0 0 1-.25-.08.13.13 0 0 0-.16.07c0 .1-.31.84-.34.94a.13.13 0 0 0 .07.18 2.94 2.94 0 0 0 1.09.18A3.47 3.47 0 0 0 53.7 41a2.22 2.22 0 0 0 .85-.59 3 3 0 0 0 .59-1 8.91 8.91 0 0 0 .41-1.54l1-5.84h1.51a.15.15 0 0 0 .15-.13l.17-.95c0-.1 0-.15-.15-.15H56.8a5.22 5.22 0 0 1 .24-1 1.19 1.19 0 0 1 .32-.49.82.82 0 0 1 .38-.24 1.53 1.53 0 0 1 .49-.07 1.43 1.43 0 0 1 .38 0l.23.05c.15.05.17 0 .2-.07l.35-1a.12.12 0 0 0-.08-.17zm-20.45 9.9a.13.13 0 0 1-.13.14h-1.22a.13.13 0 0 1-.13-.14v-9.77a.13.13 0 0 1 .13-.14h1.22a.14.14 0 0 1 .13.14z" fill-rule="evenodd"/><path d="M121 43.16V26.85h5.51a9.29 9.29 0 0 1 3.9.62 5.24 5.24 0 0 1 2.86 4.89c0 3-1.67 5.69-6.34 5.69H125v5.11zm5.77-8.77c1.68 0 2.51-.57 2.51-2s-.81-1.92-2.66-1.92H125v3.88zm16.92 8.77l-.8-2.36h-5.66l-.86 2.36h-4.47l6.54-16.31h3.29l6.47 16.31zm-3.57-11.22h-.07l-1.67 5.58h3.41zm17.55 11.22l-3.76-5.27v5.27h-4V26.85h5.34a9.94 9.94 0 0 1 3.85.6 5.4 5.4 0 0 1 3 5 5 5 0 0 1-4.1 5.16l4.43 5.55zm-2.27-8.11c1.66 0 2.67-.77 2.67-2.33s-1.06-2.21-2.62-2.21h-1.59v4.54zm10.27 8.11V30.51h-3.22v-3.66H173v3.66h-3.2v12.65zm19.17 0l-6.26-10 .11 10h-4V26.85h3.59l6.35 10.32-.18-10.32h4v16.31zm6.58 0V26.85h9.06v3.66h-5.07v2.54h4.91v3.65h-4.91v2.8h5.07v3.66zm19.43 0l-3.76-5.27H207v5.27h-4V26.85h5.34a9.94 9.94 0 0 1 3.85.6 5.4 5.4 0 0 1 3 5 5 5 0 0 1-4.06 5.14l4.43 5.55zm-2.27-8.11c1.66 0 2.67-.77 2.67-2.33s-1.06-2.21-2.62-2.21H207v4.54z"/></g></svg>